<!DOCTYPE svg PUBLIC "-//W3C//DTD SVG 20010904//EN" "http://www.w3.org/TR/2001/REC-SVG-20010904/DTD/svg10.dtd">
<svg version="1.0" xmlns="http://www.w3.org/2000/svg" width="128px" height="128px" viewBox="0 0 1280 1280" preserveAspectRatio="xMidYMid meet">
<g id="layer101" fill="#a6192b" stroke="none">
 <path d="M492 1268 c-7 -7 -12 -40 -12 -78 0 -65 -1 -66 -32 -78 -30 -11 -33 -10 -79 33 -27 26 -58 45 -70 45 -31 0 -209 -178 -209 -209 0 -12 19 -43 45 -70 43 -46 44 -49 33 -79 -12 -31 -13 -32 -78 -32 -38 0 -71 -5 -78 -12 -17 -17 -17 -279 0 -296 7 -7 40 -12 78 -12 65 0 66 -1 78 -32 11 -30 10 -33 -33 -79 -26 -27 -45 -58 -45 -70 0 -31 178 -209 209 -209 12 0 43 19 70 45 46 43 49 44 79 33 31 -12 32 -13 32 -78 0 -38 5 -71 12 -78 17 -17 279 -17 296 0 7 7 12 40 12 78 0 65 1 66 32 78 30 11 33 10 79 -33 27 -26 58 -45 70 -45 31 0 209 178 209 209 0 12 -19 43 -45 70 -43 46 -44 49 -33 79 12 31 13 32 78 32 38 0 71 5 78 12 17 17 17 279 0 296 -7 7 -40 12 -78 12 -65 0 -66 1 -78 32 -11 30 -10 33 33 79 26 27 45 58 45 70 0 31 -178 209 -209 209 -12 0 -43 -19 -70 -45 -46 -43 -49 -44 -79 -33 -31 12 -32 13 -32 78 0 38 -5 71 -12 78 -17 17 -279 17 -296 0z m248 -110 c0 -35 4 -68 8 -73 7 -11 110 -55 127 -55 5 0 31 21 57 47 l48 48 72 -73 73 -72 -48 -48 c-26 -26 -47 -54 -46 -62 0 -8 12 -40 27 -70 l27 -55 68 -3 67 -3 0 -99 0 -100 -62 0 c-35 0 -68 -4 -73 -8 -11 -7 -55 -110 -55 -127 0 -5 21 -31 47 -57 l48 -48 -73 -72 -72 -73 -48 48 c-26 26 -52 47 -57 47 -17 0 -120 -44 -127 -55 -4 -5 -8 -38 -8 -72 l0 -63 -100 0 -100 0 0 63 c0 34 -4 67 -8 72 -7 11 -110 55 -127 55 -5 0 -31 -21 -57 -47 l-48 -48 -72 73 -73 72 48 48 c26 26 47 52 47 57 0 17 -44 120 -55 127 -5 4 -38 8 -72 8 l-63 0 0 100 0 100 63 0 c34 0 67 4 72 8 11 7 55 110 55 127 0 5 -21 31 -47 57 l-48 48 73 72 72 73 48 -48 c26 -26 52 -47 57 -47 17 0 120 44 127 55 4 5 8 38 8 73 l0 62 100 0 100 0 0 -62z"/>
 <path d="M610 1150 c0 -27 3 -30 30 -30 27 0 30 3 30 30 0 27 -3 30 -30 30 -27 0 -30 -3 -30 -30z"/>
 <path d="M610 1015 c0 -52 -1 -55 -25 -55 -23 0 -25 -4 -25 -45 0 -52 -10 -56 -52 -20 -16 14 -34 25 -40 25 -14 0 -108 -94 -108 -108 0 -6 11 -24 25 -40 36 -42 32 -52 -20 -52 -41 0 -45 -2 -45 -25 0 -24 -3 -25 -55 -25 -54 0 -55 0 -55 -30 0 -30 1 -30 55 -30 52 0 55 -1 55 -25 0 -23 4 -25 45 -25 52 0 56 -10 20 -52 -14 -16 -25 -34 -25 -40 0 -14 94 -108 108 -108 6 0 24 11 40 25 42 36 52 32 52 -20 0 -41 2 -45 25 -45 24 0 25 -3 25 -55 0 -54 0 -55 30 -55 30 0 30 1 30 55 0 52 1 55 25 55 23 0 25 4 25 45 0 52 10 56 52 20 16 -14 34 -25 40 -25 14 0 108 94 108 108 0 6 -11 24 -25 40 -36 42 -32 52 20 52 41 0 45 2 45 25 0 24 3 25 55 25 54 0 55 0 55 30 0 30 -1 30 -55 30 -52 0 -55 1 -55 25 0 23 -4 25 -45 25 -52 0 -56 10 -20 52 14 16 25 34 25 40 0 14 -94 108 -108 108 -6 0 -24 -11 -40 -25 -42 -36 -52 -32 -52 20 0 41 -2 45 -25 45 -24 0 -25 3 -25 55 0 54 0 55 -30 55 -30 0 -30 -1 -30 -55z m50 -150 c0 -32 4 -37 45 -57 l45 -22 28 27 c26 25 29 26 45 10 16 -16 15 -19 -8 -43 l-26 -27 20 -46 c19 -43 23 -47 56 -47 28 0 35 -4 35 -20 0 -16 -7 -20 -35 -20 -32 0 -37 -4 -57 -45 l-22 -45 27 -28 c25 -26 26 -29 10 -45 -16 -16 -19 -15 -43 8 l-27 26 -46 -20 c-43 -19 -47 -23 -47 -56 0 -28 -4 -35 -20 -35 -16 0 -20 7 -20 35 0 32 -4 37 -45 57 l-45 22 -28 -27 c-26 -25 -29 -26 -45 -10 -16 16 -15 19 8 43 l26 27 -20 46 c-19 43 -23 47 -56 47 -28 0 -35 4 -35 20 0 16 7 20 35 20 32 0 37 4 57 45 l22 45 -27 28 c-25 26 -26 29 -10 45 16 16 19 15 43 -8 l27 -26 46 20 c43 19 47 23 47 56 0 28 4 35 20 35 16 0 20 -7 20 -35z"/>
 <path d="M564 716 c-28 -28 -34 -42 -34 -76 0 -34 6 -48 34 -76 28 -28 42 -34 76 -34 34 0 48 6 76 34 28 28 34 42 34 76 0 34 -6 48 -34 76 -28 28 -42 34 -76 34 -34 0 -48 -6 -76 -34z m108 -43 c22 -20 23 -41 1 -65 -20 -22 -41 -23 -65 -1 -22 20 -23 41 -1 65 20 22 41 23 65 1z"/>
 <path d="M100 640 c0 -27 3 -30 30 -30 27 0 30 3 30 30 0 27 -3 30 -30 30 -27 0 -30 -3 -30 -30z"/>
 <path d="M1120 640 c0 -27 3 -30 30 -30 27 0 30 3 30 30 0 27 -3 30 -30 30 -27 0 -30 -3 -30 -30z"/>
 <path d="M610 130 c0 -27 3 -30 30 -30 27 0 30 3 30 30 0 27 -3 30 -30 30 -27 0 -30 -3 -30 -30z"/>
 </g>

</svg>