<!DOCTYPE svg PUBLIC "-//W3C//DTD SVG 20010904//EN" "http://www.w3.org/TR/2001/REC-SVG-20010904/DTD/svg10.dtd">
<svg version="1.0" xmlns="http://www.w3.org/2000/svg" width="128px" height="124px" viewBox="0 0 1280 1240" preserveAspectRatio="xMidYMid meet">
<g id="layer101" fill="#a6192b" stroke="none">
 <path d="M32 1228 c-12 -12 -17 -124 -6 -152 6 -14 65 -16 568 -16 l561 0 53 35 c70 48 69 59 -10 113 l-47 32 -553 0 c-418 0 -557 -3 -566 -12z m178 -83 c0 -24 -2 -25 -65 -25 -63 0 -65 1 -65 25 0 24 2 25 65 25 63 0 65 -1 65 -25z m948 13 c9 -9 7 -14 -6 -24 -13 -11 -110 -13 -449 -14 l-433 0 0 25 0 25 438 0 c320 0 441 -3 450 -12z"/>
 <path d="M36 988 c-22 -31 -22 -214 0 -243 14 -20 28 -20 582 -23 312 -1 577 0 589 3 46 11 53 30 53 138 0 77 -4 108 -16 125 l-15 22 -589 0 -589 0 -15 -22z m1164 -118 l0 -80 -65 0 -65 0 0 40 c0 38 -2 40 -30 40 -28 0 -30 -2 -30 -40 0 -39 -1 -40 -35 -40 l-35 0 0 55 c0 54 0 55 -30 55 -30 0 -30 -1 -30 -55 l0 -55 -40 0 -40 0 0 40 c0 38 -2 40 -30 40 -28 0 -30 -2 -30 -40 0 -39 -1 -40 -35 -40 l-35 0 0 55 c0 54 0 55 -30 55 -30 0 -30 -1 -30 -55 l0 -55 -35 0 c-34 0 -35 1 -35 40 0 38 -2 40 -30 40 -28 0 -30 -2 -30 -40 l0 -40 -40 0 -40 0 0 55 c0 54 0 55 -30 55 -30 0 -30 -1 -30 -55 l0 -55 -35 0 c-34 0 -35 1 -35 40 0 38 -2 40 -30 40 -28 0 -30 -2 -30 -40 l0 -40 -65 0 -65 0 0 80 0 80 560 0 560 0 0 -80z"/>
 <path d="M0 606 c0 -95 10 -106 94 -106 60 0 62 -1 74 -32 11 -30 10 -33 -33 -79 -25 -27 -45 -56 -45 -66 0 -27 24 -59 109 -145 91 -94 106 -97 171 -34 44 44 46 44 78 31 32 -14 32 -15 32 -83 0 -39 5 -73 12 -80 17 -17 279 -17 296 0 7 7 12 40 12 80 0 65 1 68 31 84 l31 16 47 -46 c69 -68 81 -65 190 49 108 114 111 125 46 194 -43 46 -44 49 -33 79 12 31 14 32 74 32 84 0 94 11 94 106 l0 74 -30 0 c-30 0 -30 0 -30 -60 l0 -59 -71 -3 -70 -3 -25 -60 c-13 -33 -24 -64 -24 -69 0 -4 20 -31 45 -58 l45 -50 -49 -57 c-27 -31 -58 -65 -70 -75 -22 -20 -22 -20 -69 27 -26 26 -52 47 -57 47 -17 0 -120 -44 -127 -55 -4 -5 -8 -40 -8 -77 l0 -68 -100 0 -100 0 0 68 c0 37 -4 72 -8 77 -7 11 -110 55 -127 55 -5 0 -31 -21 -57 -47 -47 -47 -47 -47 -69 -27 -12 10 -43 44 -70 75 l-49 57 45 50 c25 27 45 54 45 58 0 5 -11 36 -24 69 l-25 60 -70 3 -71 3 0 59 c0 60 0 60 -30 60 l-30 0 0 -74z"/>
 <path d="M100 645 c0 -32 2 -35 30 -35 28 0 30 3 30 35 0 32 -2 35 -30 35 -28 0 -30 -3 -30 -35z"/>
 <path d="M370 635 c0 -97 64 -200 154 -248 54 -29 174 -30 226 -3 93 49 160 154 160 251 0 43 -1 45 -30 45 -27 0 -30 -3 -30 -31 0 -96 -70 -192 -156 -214 -79 -20 -136 -4 -193 54 -48 47 -71 100 -71 160 0 28 -3 31 -30 31 -29 0 -30 -2 -30 -45z"/>
 <path d="M533 633 c11 -100 114 -138 183 -69 28 28 34 42 34 75 0 39 -2 41 -30 41 -25 0 -30 -4 -30 -25 0 -23 -31 -65 -48 -65 -23 0 -52 34 -52 61 0 26 -3 29 -31 29 l-32 0 6 -47z"/>
 <path d="M1120 645 c0 -32 2 -35 30 -35 28 0 30 3 30 35 0 32 -2 35 -30 35 -28 0 -30 -3 -30 -35z"/>
 <path d="M260 310 c0 -27 3 -30 30 -30 27 0 30 3 30 30 0 27 -3 30 -30 30 -27 0 -30 -3 -30 -30z"/>
 <path d="M960 310 c0 -27 3 -30 30 -30 27 0 30 3 30 30 0 27 -3 30 -30 30 -27 0 -30 -3 -30 -30z"/>
 <path d="M610 140 c0 -27 3 -30 30 -30 27 0 30 3 30 30 0 27 -3 30 -30 30 -27 0 -30 -3 -30 -30z"/>
 </g>

</svg>