<!DOCTYPE svg PUBLIC "-//W3C//DTD SVG 20010904//EN" "http://www.w3.org/TR/2001/REC-SVG-20010904/DTD/svg10.dtd">
<svg version="1.0" xmlns="http://www.w3.org/2000/svg" width="128px" height="128px" viewBox="0 0 1280 1280" preserveAspectRatio="xMidYMid meet">
<g id="layer101" fill="#a6192b" stroke="none">
 <path d="M480 1264 c-190 -51 -339 -175 -421 -349 -46 -99 -59 -160 -59 -278 0 -254 137 -471 365 -578 99 -46 160 -59 278 -59 254 0 471 137 578 365 40 87 59 160 59 230 0 43 -1 45 -30 45 -28 0 -30 -2 -30 -38 0 -59 -27 -150 -68 -232 -72 -144 -231 -266 -390 -299 -258 -53 -530 79 -641 312 -46 96 -61 161 -61 260 0 216 130 424 323 516 83 40 160 61 222 61 32 0 35 2 35 30 0 30 -1 30 -52 29 -29 0 -78 -7 -108 -15z"/>
 <path d="M880 1235 c0 -52 -10 -56 -52 -20 -16 14 -34 25 -40 25 -14 0 -108 -94 -108 -108 0 -6 11 -24 25 -40 36 -42 32 -52 -20 -52 l-45 0 0 -80 0 -80 45 0 c52 0 56 -10 20 -52 -14 -16 -25 -34 -25 -40 0 -14 94 -108 108 -108 6 0 24 11 40 25 42 36 52 32 52 -20 l0 -45 80 0 80 0 0 45 c0 52 10 56 52 20 16 -14 34 -25 40 -25 14 0 108 94 108 108 0 6 -11 24 -25 40 -36 42 -32 52 20 52 l45 0 0 80 0 80 -45 0 c-52 0 -56 10 -20 52 14 16 25 34 25 40 0 14 -94 108 -108 108 -6 0 -24 -11 -40 -25 -42 -36 -52 -32 -52 20 l0 45 -80 0 -80 0 0 -45z m100 -50 c0 -32 4 -37 45 -57 l45 -22 28 27 c26 25 29 26 45 10 16 -16 15 -19 -8 -43 l-26 -27 20 -46 c19 -43 23 -47 56 -47 28 0 35 -4 35 -20 0 -16 -7 -20 -35 -20 -32 0 -37 -4 -57 -45 l-22 -45 27 -28 c25 -26 26 -29 10 -45 -16 -16 -19 -15 -43 8 l-27 26 -46 -20 c-43 -19 -47 -23 -47 -56 0 -28 -4 -35 -20 -35 -16 0 -20 7 -20 35 0 32 -4 37 -45 57 l-45 22 -28 -27 c-26 -25 -29 -26 -45 -10 -16 16 -15 19 8 43 l26 27 -20 46 c-19 43 -23 47 -56 47 -28 0 -35 4 -35 20 0 16 7 20 35 20 32 0 37 4 57 45 l22 45 -27 28 c-25 26 -26 29 -10 45 16 16 19 15 43 -8 l27 -26 46 20 c43 19 47 23 47 56 0 28 4 35 20 35 16 0 20 -7 20 -35z"/>
 <path d="M884 1036 c-28 -28 -34 -42 -34 -76 0 -34 6 -48 34 -76 28 -28 42 -34 76 -34 34 0 48 6 76 34 28 28 34 42 34 76 0 34 -6 48 -34 76 -28 28 -42 34 -76 34 -34 0 -48 -6 -76 -34z m108 -43 c22 -20 23 -41 1 -65 -20 -22 -41 -23 -65 -1 -22 20 -23 41 -1 65 20 22 41 23 65 1z"/>
 <path d="M513 1135 c-226 -61 -383 -264 -383 -495 0 -280 230 -510 510 -510 233 0 435 158 495 387 8 31 15 72 15 90 0 29 -3 33 -28 33 -27 0 -28 -3 -39 -65 -32 -184 -159 -323 -340 -370 -31 -8 -61 -15 -65 -15 -4 0 -8 29 -8 65 l0 65 -30 0 -30 0 0 -65 c0 -36 -4 -65 -8 -65 -4 0 -34 7 -65 15 -65 17 -126 46 -175 83 l-33 25 48 49 47 48 -22 22 -22 22 -44 -43 c-24 -24 -49 -40 -55 -36 -25 15 -91 180 -91 227 0 4 29 8 65 8 l65 0 0 30 0 30 -65 0 c-36 0 -65 4 -65 8 0 47 66 212 91 227 6 4 31 -12 55 -36 l44 -43 22 22 22 22 -47 48 -48 49 36 27 c53 41 138 77 211 89 61 11 64 12 64 39 0 26 -3 28 -37 27 -21 0 -62 -7 -90 -14z"/>
 <path d="M502 777 l-22 -23 65 -64 65 -64 0 -103 0 -103 30 0 30 0 0 118 0 118 -73 72 -73 73 -22 -24z"/>
 </g>

</svg>