<!DOCTYPE svg PUBLIC "-//W3C//DTD SVG 20010904//EN" "http://www.w3.org/TR/2001/REC-SVG-20010904/DTD/svg10.dtd">
<svg version="1.0" xmlns="http://www.w3.org/2000/svg" width="128px" height="135px" viewBox="0 0 1280 1350" preserveAspectRatio="xMidYMid meet">
<g id="layer101" fill="#a6192b" stroke="none">
 <path d="M17 1332 c-24 -26 -25 -233 -1 -256 13 -13 43 -16 170 -16 198 0 194 -3 194 145 0 148 4 145 -193 145 -136 0 -156 -2 -170 -18z m303 -132 l0 -80 -130 0 -130 0 0 80 0 80 130 0 130 0 0 -80z"/>
 <path d="M100 1205 c0 -32 2 -35 30 -35 28 0 30 3 30 35 0 32 -2 35 -30 35 -28 0 -30 -3 -30 -35z"/>
 <path d="M210 1205 c0 -32 2 -35 30 -35 28 0 30 3 30 35 0 32 -2 35 -30 35 -28 0 -30 -3 -30 -35z"/>
 <path d="M472 1334 c-21 -14 -22 -23 -22 -128 0 -152 -8 -146 192 -146 195 0 188 -6 188 147 0 148 7 143 -186 143 -119 0 -154 -3 -172 -16z m298 -134 l0 -80 -130 0 -130 0 0 80 0 80 130 0 130 0 0 -80z"/>
 <path d="M560 1205 c0 -32 2 -35 30 -35 28 0 30 3 30 35 0 32 -2 35 -30 35 -28 0 -30 -3 -30 -35z"/>
 <path d="M660 1205 c0 -32 2 -35 30 -35 28 0 30 3 30 35 0 32 -2 35 -30 35 -28 0 -30 -3 -30 -35z"/>
 <path d="M920 1330 c-17 -17 -20 -33 -20 -123 0 -152 -6 -147 190 -147 131 0 161 3 174 16 13 12 16 39 16 128 0 152 7 146 -188 146 -139 0 -154 -2 -172 -20z m300 -130 l0 -80 -130 0 -130 0 0 80 0 80 130 0 130 0 0 -80z"/>
 <path d="M1010 1205 c0 -32 2 -35 30 -35 28 0 30 3 30 35 0 32 -2 35 -30 35 -28 0 -30 -3 -30 -35z"/>
 <path d="M1120 1205 c0 -32 2 -35 30 -35 28 0 30 3 30 35 0 32 -2 35 -30 35 -28 0 -30 -3 -30 -35z"/>
 <path d="M160 925 l0 -85 225 0 225 0 0 -100 0 -100 30 0 30 0 0 100 0 100 225 0 225 0 0 85 0 85 -30 0 c-30 0 -30 -1 -30 -55 l0 -55 -195 0 -195 0 0 55 c0 54 0 55 -30 55 -30 0 -30 -1 -30 -55 l0 -55 -195 0 -195 0 0 55 c0 54 0 55 -30 55 l-30 0 0 -85z"/>
 <path d="M0 606 c0 -95 10 -106 94 -106 60 0 62 -1 74 -32 11 -30 10 -33 -33 -79 -25 -27 -45 -56 -45 -66 0 -27 24 -59 109 -145 91 -94 106 -97 171 -34 44 44 46 44 78 31 32 -14 32 -15 32 -83 0 -39 5 -73 12 -80 17 -17 279 -17 296 0 7 7 12 40 12 80 0 65 1 68 31 84 l31 16 47 -46 c69 -68 81 -65 190 49 108 114 111 125 46 194 -43 46 -44 49 -33 79 12 31 14 32 74 32 84 0 94 11 94 106 l0 74 -30 0 c-30 0 -30 0 -30 -60 l0 -59 -71 -3 -70 -3 -25 -60 c-13 -33 -24 -64 -24 -69 0 -4 20 -31 45 -58 l45 -50 -49 -57 c-27 -31 -58 -65 -70 -75 -22 -20 -22 -20 -69 27 -26 26 -52 47 -57 47 -17 0 -120 -44 -127 -55 -4 -5 -8 -40 -8 -77 l0 -68 -100 0 -100 0 0 68 c0 37 -4 72 -8 77 -7 11 -110 55 -127 55 -5 0 -31 -21 -57 -47 -47 -47 -47 -47 -69 -27 -12 10 -43 44 -70 75 l-49 57 45 50 c25 27 45 54 45 58 0 5 -11 36 -24 69 l-25 60 -70 3 -71 3 0 59 c0 60 0 60 -30 60 l-30 0 0 -74z"/>
 <path d="M100 645 c0 -32 2 -35 30 -35 28 0 30 3 30 35 0 32 -2 35 -30 35 -28 0 -30 -3 -30 -35z"/>
 <path d="M370 635 c0 -97 64 -200 154 -248 54 -29 174 -30 226 -3 93 49 160 154 160 251 0 43 -1 45 -30 45 -27 0 -30 -3 -30 -31 0 -96 -70 -192 -156 -214 -79 -20 -136 -4 -193 54 -48 47 -71 100 -71 160 0 28 -3 31 -30 31 -29 0 -30 -2 -30 -45z"/>
 <path d="M500 648 c0 -76 69 -148 140 -148 71 0 140 72 140 148 0 29 -3 32 -29 32 -25 0 -30 -5 -35 -34 -10 -50 -37 -79 -74 -79 -42 0 -69 26 -77 74 -6 35 -10 39 -36 39 -26 0 -29 -3 -29 -32z"/>
 <path d="M1120 645 c0 -32 2 -35 30 -35 28 0 30 3 30 35 0 32 -2 35 -30 35 -28 0 -30 -3 -30 -35z"/>
 <path d="M260 310 c0 -27 3 -30 30 -30 27 0 30 3 30 30 0 27 -3 30 -30 30 -27 0 -30 -3 -30 -30z"/>
 <path d="M960 310 c0 -27 3 -30 30 -30 27 0 30 3 30 30 0 27 -3 30 -30 30 -27 0 -30 -3 -30 -30z"/>
 <path d="M610 140 c0 -27 3 -30 30 -30 27 0 30 3 30 30 0 27 -3 30 -30 30 -27 0 -30 -3 -30 -30z"/>
 </g>

</svg>